<svg xmlns="http://www.w3.org/2000/svg" width="1000" height="1500" viewBox="0 0 1000 1500" role="img"><title>Cat budget checklist: separate setup, recurring and unexpected costs and use local quotes.</title>
<rect width="1000" height="1500" fill="#f4f1e8"/><rect x="48" y="48" width="904" height="1404" rx="32" fill="#fcfcfa"/>
<path d="M690 48H920Q952 48 952 80V390Q835 320 690 48" fill="#e1eadd"/><circle cx="865" cy="128" r="24" fill="#315c42"/>
<text x="104" y="153" fill="#315c42" font-family="sans-serif" font-weight="700" font-size="25" letter-spacing="3">THE PET CLUB</text>
<text x="104" y="263" fill="#696960" font-family="sans-serif" font-size="22" letter-spacing="2">CANADIAN PET PARENTS</text>
<text x="104" y="400" fill="#202c25" font-family="Georgia,serif" font-size="80">Build your</text><text x="104" y="500" fill="#202c25" font-family="Georgia,serif" font-size="80">cat budget</text>
<path d="M104 568H230" stroke="#bc755d" stroke-width="8"/>
<text x="104" y="640" fill="#4d554d" font-family="sans-serif" font-size="28">Use local quotes, not a national average.</text>
<circle cx="129" cy="785" r="24" fill="#e1eadd"/><text x="129" y="794" text-anchor="middle" fill="#315c42" font-family="sans-serif" font-weight="700" font-size="25">1</text><text x="181" y="794" fill="#202c25" font-family="sans-serif" font-size="27">Separate setup and monthly costs</text><circle cx="129" cy="910" r="24" fill="#e1eadd"/><text x="129" y="919" text-anchor="middle" fill="#315c42" font-family="sans-serif" font-weight="700" font-size="25">2</text><text x="181" y="919" fill="#202c25" font-family="sans-serif" font-size="27">Include irregular and emergency costs</text><circle cx="129" cy="1035" r="24" fill="#e1eadd"/><text x="129" y="1044" text-anchor="middle" fill="#315c42" font-family="sans-serif" font-weight="700" font-size="25">3</text><text x="181" y="1044" fill="#202c25" font-family="sans-serif" font-size="27">Compare insurance with savings</text>
<rect x="104" y="1200" width="792" height="105" rx="18" fill="#315c42"/><text x="500" y="1265" text-anchor="middle" fill="#fff" font-family="sans-serif" font-size="31">Read the Canadian guide</text>
<text x="104" y="1385" fill="#696960" font-family="sans-serif" font-size="24">thepetclub.ca</text><text x="896" y="1385" text-anchor="end" fill="#696960" font-family="sans-serif" font-size="19">General information</text></svg>